<?xml version="1.0" encoding="iso-8859-1"?>
<!-- Generator: Adobe Illustrator 19.0.0, SVG Export Plug-In . SVG Version: 6.00 Build 0)  -->
<svg version="1.1" id="Capa_1" xmlns="http://www.w3.org/2000/svg" xmlns:xlink="http://www.w3.org/1999/xlink" x="0px" y="0px"
	 viewBox="0 0 490 490" style="enable-background:new 0 0 490 490;" xml:space="preserve">
<path d="M412.842,94.37H124.343c-20.271,0-36.76-16.484-36.76-36.754c0-20.271,16.489-36.765,36.76-36.765h288.499
	c13.536,0,13.993-20.851,0-20.851H124.343C92.577,0,66.732,25.85,66.732,57.616v336.997c0,52.596,42.786,95.387,95.382,95.387
	h250.728c5.757,0,10.426-4.662,10.426-10.426V104.795C423.268,99.033,418.599,94.37,412.842,94.37z M254.997,115.221h76.45v124.455
	l-29.561-35.665c-3.125-3.573-10.347-6.441-15.969-0.102l-30.92,36.348V115.221z M162.115,469.149
	c-41.097,0-74.531-33.435-74.531-74.536V101.934c9.982,8.292,22.798,13.287,36.76,13.287h109.803V268.59
	c0,9.49,12.04,13.951,18.367,6.761l41.239-48.472l40.094,48.37c7.415,7.812,18.453,1.989,18.453-6.659V115.221h50.118v353.928
	H162.115z"/>
<g>
</g>
<g>
</g>
<g>
</g>
<g>
</g>
<g>
</g>
<g>
</g>
<g>
</g>
<g>
</g>
<g>
</g>
<g>
</g>
<g>
</g>
<g>
</g>
<g>
</g>
<g>
</g>
<g>
</g>
</svg>
